# xmcd CD database file
#
# Track frame offsets:
#	150
#	20357
#	41909
#	63658
#	86725
#	107767
#	129562
#	152157
#	172329
#	193250
#	214896
#
# Disc length: 3122 seconds
#
# Revision: 0
# Processed by: cddbd v1.5.2PL0 Copyright (c) Steve Scherf et al.
# Submitted via: CDex 1.51
#
DISCID=a70c300b
DTITLE=Ed Smith - Lifescapes:  The Romantic
DYEAR=2006
DGENRE=Jazz
TTITLE0=Romance Dance
TTITLE1=A Little Sugar
TTITLE2=Afterthought
TTITLE3=No More Loneliness
TTITLE4=By Your Side
TTITLE5=Don't Turn Away
TTITLE6=Hold On Tight
TTITLE7=A New Day
TTITLE8=It's 5 O'clock, Somewhere
TTITLE9=Starry Nights
TTITLE10=My Everything
EXTD=YEAR: 2006
EXTT0=
EXTT1=
EXTT2=
EXTT3=
EXTT4=
EXTT5=
EXTT6=
EXTT7=
EXTT8=
EXTT9=
EXTT10=
PLAYORDER=
